<svg width="220" height="192" viewBox="0 0 220 192" fill="none" xmlns="http://www.w3.org/2000/svg">
<mask id="mask0_2010_580" style="mask-type:alpha" maskUnits="userSpaceOnUse" x="0" y="8" width="216" height="184">
<path d="M122.816 11.9519C118.102 9.41579 112.951 8.10022 107.735 8.10022C102.519 8.10022 97.3677 9.41579 92.6537 11.9519L5.14675 59.0301C3.53616 59.893 2.18794 61.2803 1.2736 63.0158C0.359247 64.7512 -0.0799181 66.7563 0.0119582 68.776V130.473C0.0119582 133.177 0.957738 135.77 2.64124 137.682C4.32473 139.593 6.60805 140.668 8.98887 140.668C11.3697 140.668 13.653 139.593 15.3365 137.682C17.02 135.77 17.9658 133.177 17.9658 130.473V84.6794L35.9196 94.7923V150.862C35.9199 152.203 36.1531 153.531 36.606 154.769C37.0589 156.008 37.7225 157.133 38.5588 158.08L39.0077 158.569L40.0849 159.69C45.7118 165.385 51.7946 170.47 58.2542 174.88C70.2474 183.077 87.5728 191.64 107.735 191.64C127.897 191.64 145.223 183.077 157.234 174.88C163.693 170.47 169.776 165.385 175.403 159.69L176.48 158.569L176.893 158.08H176.929C177.764 157.129 178.426 156 178.876 154.758C179.325 153.516 179.555 152.185 179.55 150.842V94.7719L210.467 77.3598C211.978 76.5098 213.248 75.1935 214.131 73.5618C215.014 71.93 215.474 70.0488 215.459 68.1336C215.444 66.2184 214.955 64.3468 214.046 62.7331C213.138 61.1195 211.848 59.829 210.323 59.0097L122.816 11.9519ZM123.391 126.436L161.596 104.905V146.336C157.338 150.438 152.792 154.141 148.005 157.407C137.592 164.502 123.48 171.251 107.735 171.251C91.9894 171.251 77.8957 164.523 67.4645 157.407C62.6776 154.141 58.1323 150.438 53.8735 146.336V104.905L92.0792 126.436C101.954 131.982 113.516 131.982 123.391 126.436ZM115.132 30.3836L185.906 68.4498L115.401 108.168C113.018 109.508 110.394 110.206 107.735 110.206C105.075 110.206 102.452 109.508 100.069 108.168L29.564 68.4498L100.338 30.3836C102.65 29.1392 105.176 28.4937 107.735 28.4937C110.293 28.4937 112.82 29.1392 115.132 30.3836Z" fill="white"/>
</mask>
<g mask="url(#mask0_2010_580)">
<rect x="-0.0339355" y="8.14563" width="112" height="183" fill="white"/>
</g>
<mask id="mask1_2010_580" style="mask-type:alpha" maskUnits="userSpaceOnUse" x="52" y="0" width="168" height="160">
<path d="M69.4586 0V143.206H219.825V159.118H52.7512V0H69.4586ZM219.106 47.7353L165.526 98.7643L132.111 66.9408L90.3428 106.72L78.5307 95.4706L132.111 44.4415L165.526 76.2651L207.294 36.4857L219.106 47.7353Z" fill="white"/>
</mask>
<g mask="url(#mask1_2010_580)">
<rect x="110.966" y="0.14563" width="148" height="199" fill="white"/>
</g>
</svg>
