<svg width="475" height="475" viewBox="0 0 475 475" fill="none" xmlns="http://www.w3.org/2000/svg">
<rect width="475" height="475" rx="10" fill="#4318FF"/>
<mask id="mask0_32_2" style="mask-type:alpha" maskUnits="userSpaceOnUse" x="89" y="111" width="298" height="254">
<path d="M312.248 244.609L259.425 274.378C245.924 281.96 230.123 281.96 216.622 274.378H216.621L163.799 244.609L163.053 244.189V302.541L163.206 302.688C169.114 308.379 175.421 313.516 182.063 318.049C196.529 327.917 216.114 337.276 238.024 337.276C259.934 337.276 279.544 327.888 293.985 318.049C300.627 313.516 306.933 308.379 312.841 302.688L312.994 302.541V244.189L312.248 244.609ZM238.024 138.896C234.401 138.896 230.827 139.811 227.56 141.569L129.705 194.2L128.906 194.631L129.698 195.076L227.179 249.991C230.547 251.885 234.258 252.874 238.024 252.874C241.789 252.874 245.501 251.885 248.868 249.991L346.35 195.076L347.142 194.631L346.342 194.2L248.488 141.569C245.22 139.811 241.646 138.896 238.024 138.896ZM89.5833 195.081L89.5823 195.069C89.4592 192.363 90.0485 189.679 91.2698 187.361C92.4147 185.188 94.0641 183.432 96.0227 182.28L96.4192 182.057L217.408 116.966C223.855 113.497 230.897 111.7 238.024 111.7C245.151 111.7 252.192 113.497 258.639 116.966L379.628 182.029C381.646 183.114 383.364 184.828 384.576 186.982C385.789 189.137 386.446 191.641 386.466 194.208C386.486 196.774 385.869 199.291 384.69 201.471C383.511 203.65 381.82 205.399 379.819 206.524H379.818L337.072 230.598L336.818 230.742V308.559C336.824 310.359 336.516 312.141 335.914 313.803C335.339 315.39 334.506 316.835 333.463 318.065H333.411L333.261 318.243L332.704 318.902L331.228 320.441C323.955 327.802 316.13 334.423 307.843 340.23L306.18 341.382C289.616 352.685 265.76 364.467 238.024 364.467C210.287 364.467 186.431 352.684 169.893 341.382H169.892C161.544 335.683 153.653 329.165 146.307 321.903L144.845 320.441L143.361 318.895L142.753 318.234H142.754C141.641 316.974 140.754 315.474 140.149 313.817C139.543 312.161 139.23 310.382 139.23 308.586V230.77L138.976 230.627L114.152 216.644L113.407 216.224V280.395C113.407 284.02 112.138 287.486 109.896 290.032C107.656 292.576 104.632 293.991 101.495 293.991C98.3582 293.991 95.3342 292.576 93.094 290.032C90.852 287.486 89.5833 284.02 89.5833 280.395V195.081Z" fill="white" stroke="black"/>
</mask>
<g mask="url(#mask0_32_2)">
<rect x="-38" y="83" width="509" height="364" fill="white"/>
</g>
</svg>
